<?xml version="1.0" standalone="no"?>
<!DOCTYPE svg PUBLIC "-//W3C//DTD SVG 20010904//EN"
 "http://www.w3.org/TR/2001/REC-SVG-20010904/DTD/svg10.dtd">
<svg version="1.0" xmlns="http://www.w3.org/2000/svg"
 width="900.000000pt" height="288.000000pt" viewBox="0 0 900.000000 288.000000"
 preserveAspectRatio="xMidYMid meet">
<metadata>
Created by potrace 1.10, written by Peter Selinger 2001-2011
</metadata>
<g transform="translate(0.000000,288.000000) scale(0.100000,-0.100000)"
fill="#273490" stroke="none">
<path d="M8962 1458 c3 -1108 4 -1173 21 -1176 16 -3 17 58 17 1172 0 1170 0
1176 -20 1176 -20 0 -20 -5 -18 -1172z"/>
<path d="M3746 2133 c-4 -4 -247 -11 -539 -14 -553 -6 -552 -6 -652 -50 -46
-20 -138 -93 -169 -133 -15 -20 -40 -63 -57 -95 -28 -57 -29 -66 -29 -187 0
-127 0 -128 37 -203 59 -121 153 -200 288 -242 54 -17 98 -19 442 -19 210 0
384 3 386 8 3 4 0 66 -6 139 -7 92 -7 169 0 260 6 70 10 129 8 131 -2 2 -176
3 -386 3 -378 -1 -384 -2 -401 -22 -27 -32 -23 -85 7 -115 l26 -26 294 3 c162
2 297 0 300 -3 8 -8 9 -207 2 -215 -4 -3 -140 -5 -304 -4 -351 3 -369 6 -448
85 -74 75 -96 124 -98 215 -1 61 4 85 22 120 33 63 75 105 141 140 l58 31 410
0 c341 0 416 2 445 15 20 8 46 15 57 15 60 0 225 112 218 148 -3 18 -38 28
-52 15z"/>
<path d="M4810 2121 c-93 -13 -210 -106 -226 -179 -3 -15 -12 -50 -20 -77 -11
-40 -14 -113 -12 -365 l3 -315 24 3 c29 3 52 25 76 73 16 30 18 64 16 314 l-2
280 30 43 c17 23 50 55 73 72 39 28 46 30 135 30 89 0 97 -2 144 -32 29 -19
61 -51 75 -76 l26 -43 -3 -323 c-1 -177 1 -328 5 -334 7 -12 91 -10 103 2 3 3
5 149 4 325 -3 344 -1 358 52 415 49 52 94 69 187 70 75 0 90 -3 125 -26 55
-35 90 -76 104 -120 9 -26 12 -120 10 -301 l-2 -263 28 -47 c29 -50 55 -70 77
-62 14 6 14 2 5 525 -5 221 -14 257 -87 330 -67 67 -116 83 -258 82 -118 -1
-124 -2 -184 -34 -34 -18 -69 -45 -77 -60 -15 -27 -61 -40 -61 -18 0 13 -71
80 -85 80 -7 0 -25 6 -41 14 -33 16 -177 26 -244 17z"/>
<path d="M7631 2021 c-12 -16 -21 -36 -21 -44 0 -9 -6 -28 -14 -44 -18 -36
-39 -87 -61 -143 -10 -25 -21 -54 -26 -65 -27 -65 -51 -131 -79 -210 -17 -49
-37 -103 -44 -120 -7 -16 -21 -50 -31 -75 -9 -25 -23 -58 -30 -75 -7 -16 -23
-55 -35 -85 -12 -30 -27 -60 -32 -67 -15 -19 35 -46 71 -38 35 7 52 38 90 165
41 134 11 120 266 120 244 0 239 1 255 -62 9 -35 66 -193 75 -208 8 -13 62
-22 85 -15 26 8 25 35 -1 79 -11 19 -32 66 -46 103 -14 37 -37 97 -50 133 -13
36 -29 81 -35 100 -5 19 -14 39 -19 44 -5 6 -9 18 -9 27 0 10 -7 32 -16 51
-38 75 -44 90 -44 103 0 7 -6 26 -14 42 -8 15 -22 48 -32 73 -26 70 -44 114
-53 130 -5 9 -12 30 -16 48 -14 65 -97 86 -134 33z m85 -130 c9 -39 56 -194
65 -211 4 -8 15 -35 24 -60 9 -25 23 -58 30 -75 8 -16 16 -40 20 -52 3 -13 11
-23 16 -23 5 0 9 -12 9 -27 l0 -28 -192 1 c-131 1 -193 5 -196 13 -2 6 10 40
27 76 17 36 31 71 31 78 0 7 7 22 15 33 8 10 15 28 15 40 0 11 7 29 15 40 8
10 15 28 15 39 0 11 7 29 15 39 8 11 15 29 15 40 0 22 20 82 33 103 12 19 36
4 43 -26z"/>
<path d="M4220 1862 c-34 -17 -35 -18 -32 -70 2 -43 -1 -54 -15 -59 -32 -11
-73 -44 -68 -54 4 -5 24 -9 46 -9 l40 0 -3 -203 c-2 -201 -2 -202 22 -236 31
-41 56 -51 125 -51 71 0 103 13 111 46 10 40 -17 57 -56 37 -40 -20 -79 -13
-101 17 -16 22 -19 49 -20 205 l-2 180 81 3 c71 2 82 5 87 23 12 38 -12 51
-84 45 -86 -8 -91 -4 -78 60 10 49 6 84 -10 84 -4 0 -24 -8 -43 -18z"/>
<path d="M3791 1733 c-53 -10 -118 -70 -152 -140 -29 -60 -31 -224 -3 -274 53
-96 115 -132 229 -133 97 -1 171 18 192 50 31 47 -8 70 -66 39 -35 -17 -156
-22 -194 -6 -38 15 -74 55 -98 110 -14 32 -16 48 -9 55 7 7 69 10 183 7 197
-4 204 -1 193 66 -16 92 -32 127 -78 173 -55 56 -107 70 -197 53z m142 -98
c37 -36 52 -69 45 -101 -3 -16 -18 -18 -141 -20 -76 0 -140 2 -142 7 -7 10 14
56 38 89 30 41 68 60 118 60 39 0 51 -5 82 -35z"/>
<path d="M6418 1734 c-14 -13 -9 -31 16 -60 78 -92 186 -225 186 -229 0 -2
-15 -19 -33 -37 -18 -18 -52 -60 -77 -93 -24 -33 -46 -62 -50 -65 -4 -3 -25
-30 -48 -60 -105 -139 -262 -334 -320 -397 -15 -16 -22 -35 -20 -52 3 -26 4
-26 95 -29 l91 -3 36 54 c20 30 47 66 61 81 25 27 110 137 247 318 37 49 73
101 80 116 7 15 20 27 29 27 9 0 45 -38 81 -85 l65 -85 76 -3 c82 -3 85 -1 78
56 -2 15 -157 203 -177 215 -20 11 -17 43 4 59 10 7 42 42 72 78 29 36 70 83
92 105 38 40 49 79 26 87 -7 3 -52 3 -100 0 l-87 -4 -48 -72 c-26 -39 -51 -79
-55 -89 -10 -24 -39 -18 -54 11 -6 13 -31 52 -55 87 -43 64 -45 65 -89 65 -25
0 -61 3 -80 6 -19 3 -38 2 -42 -2z"/>
<path d="M6020 1715 c-29 -10 -36 -18 -38 -44 -4 -41 16 -48 71 -27 103 39
181 8 207 -84 12 -42 -3 -49 -86 -43 -114 9 -186 -23 -225 -99 -37 -72 -17
-160 46 -210 25 -20 41 -23 107 -23 74 0 78 1 112 34 34 33 69 38 65 9 -4 -33
2 -39 34 -36 l32 3 2 165 c4 244 -15 303 -108 350 -45 23 -161 26 -219 5z
m240 -318 c0 -39 -6 -70 -15 -84 -45 -64 -154 -85 -200 -38 -31 30 -34 92 -6
123 30 35 100 62 164 62 l57 0 0 -63z"/>
<path d="M8304 1620 c-64 -15 -154 -92 -154 -132 0 -8 -7 -23 -15 -34 -10 -13
-14 -45 -15 -102 0 -129 46 -214 144 -264 32 -16 54 -19 130 -16 111 4 169 27
174 71 3 23 0 27 -23 27 -14 0 -42 -7 -62 -15 -45 -19 -130 -19 -175 -1 -48
20 -86 62 -99 108 -20 75 -26 72 181 73 l185 0 -2 47 c-3 114 -71 215 -158
237 -49 12 -65 12 -111 1z m94 -71 c40 -14 81 -68 84 -111 l3 -33 -134 -3
c-77 -1 -139 2 -144 7 -19 19 36 104 83 128 49 26 64 28 108 12z"/>
<path d="M7 1243 c-15 -15 -7 -61 12 -66 22 -5 41 10 41 33 0 29 -36 51 -53
33z"/>
<path d="M7119 1190 c-28 -16 -43 -64 -28 -92 14 -27 39 -47 57 -48 20 0 72
56 72 78 0 25 -44 72 -67 72 -10 0 -25 -5 -34 -10z"/>
</g>
</svg>
